<svg xmlns="http://www.w3.org/2000/svg" version="1.1" xmlns:xlink="http://www.w3.org/1999/xlink" xmlns:svgjs="http://svgjs.com/svgjs" width="1440" height="800" preserveAspectRatio="none" viewBox="0 0 1440 800"><g mask="url(&quot;#SvgjsMask1146&quot;)" fill="none"><rect width="1440" height="800" x="0" y="0" fill="rgba(243, 243, 243, 1)"></rect><path d="M0,547.018C110.054,545.026,220.129,544.376,319.714,497.485C428.529,446.248,558.662,385.516,589.747,269.328C621.171,151.874,503.534,49.422,470.928,-67.709C443.828,-165.062,462.708,-270.429,414.736,-359.371C359.246,-462.25,289.644,-571.862,178.873,-609.187C67.33,-646.772,-60.544,-612.485,-162.646,-553.922C-254.951,-500.978,-276.654,-380.18,-351.778,-304.817C-435.313,-221.016,-608.687,-207.058,-625.204,-89.891C-641.736,27.382,-474.651,86.639,-421.909,192.68C-371.855,293.318,-413.309,436.907,-327.238,509.193C-241.414,581.272,-112.058,549.046,0,547.018" fill="#c7c7c7"></path><path d="M1440 1335.5639999999999C1557.222 1325.441 1686.733 1401.551 1785.815 1338.0990000000002 1884.895 1274.6480000000001 1899.029 1136.93 1928.171 1022.94 1953.065 925.567 1945.9 828.271 1941.83 727.848 1937.266 615.2470000000001 1975.365 485.2 1902.879 398.913 1830.414 312.651 1690.586 344.938 1585.674 303.88 1466.724 257.328 1372.863 121.30200000000002 1246.843 142.16600000000005 1122.063 162.82500000000005 1041.846 291.938 982.663 403.716 930.578 502.088 963.496 619.585 936.845 727.657 906.026 852.631 792.522 958.831 814.492 1085.66 837.487 1218.404 928.4390000000001 1351.353 1053.545 1401.335 1177.3980000000001 1450.817 1307.123 1347.039 1440 1335.5639999999999" fill="#ffffff"></path></g><defs><mask id="SvgjsMask1146"><rect width="1440" height="800" fill="#ffffff"></rect></mask></defs></svg>